<svg width="285" height="65" viewBox="0 0 285 65" fill="none" xmlns="http://www.w3.org/2000/svg">
<path d="M3.1875 51.375L0 45L22.375 0.21875H28.7812L32 6.625L9.59375 51.375H3.1875ZM28.7812 51.375L22.375 38.625L31.9688 19.4062H38.375L41.5625 13H60.7812L67.1875 25.8125L60.7812 38.625H47.9688L51.1875 45L47.9688 51.375H28.7812ZM92.7812 38.625L99.1875 25.8125H86.375L80 38.625H92.7812ZM60.8125 64.1875L57.625 57.7812L60.8125 51.375H73.5938L67.1875 38.625L76.7812 19.4062H83.1875L86.375 13H112L115.188 19.4062L96 57.7812H89.5938L86.375 64.1875H60.8125ZM118.406 51.375L112 38.625L121.594 19.4062H128L131.188 13H150.406L156.812 25.8125L150.406 38.625H137.594L140.812 45L137.594 51.375H118.406ZM156.812 51.375L153.625 45L169.625 13H195.219L201.625 25.8125L188.812 51.375H182.406L179.219 45L188.812 25.8125H176L163.219 51.375H156.812ZM201.625 51.375L198.438 45L201.625 38.625H208.031L211.219 45L208.031 51.375H201.625ZM220.812 51.375L217.625 45L233.625 13H240L243.219 19.4062L227.219 51.375H220.812ZM240 13L236.812 6.625L240 0.21875H246.406L249.625 6.625L246.406 13H240ZM265.594 38.625L272 25.8125H259.188L252.812 38.625H265.594ZM246.406 51.375L240 38.625L249.594 19.4062H256L259.188 13H278.406L284.812 25.8125L275.188 45H268.812L265.594 51.375H246.406Z" fill="#2096C4"/>
</svg>
