<svg width="103" height="134" viewBox="0 0 103 134" fill="none" xmlns="http://www.w3.org/2000/svg">
<path d="M3.1875 70.375L0 64L22.375 19.2188H28.7812L32 25.625L16 57.625H28.7812L32 64L28.7812 70.375H3.1875ZM67.1562 57.625L79.9688 32H67.1562L54.375 57.625H67.1562ZM41.5625 70.375L38.375 64L60.75 19.2188H86.375L92.75 32L76.75 64H70.375L67.1562 70.375H41.5625Z" fill="#2096C4"/>
<path d="M28.7812 108.625L32 102.219H25.5938L22.375 95.8125L16 108.625H28.7812ZM9.59375 121.375L3.1875 108.625L19.1875 76.625H25.5938L28.7812 70.2188H48L54.375 83L51.1875 89.4062H44.7812L41.5938 83H28.7812L25.5938 89.4062H44.7812L48 95.8125L35.1875 121.375H9.59375ZM48 121.375L44.8125 115L67.1875 70.2188H73.5938L83.1875 89.4062L92.8125 70.2188H99.1875L102.406 76.625L80 121.375H73.5938L70.4062 115L76.8125 102.219L70.4062 89.4062L54.4062 121.375H48Z" fill="#2096C4"/>
</svg>
